<?xml version="1.0" encoding="utf-8"?><svg xmlns="http://www.w3.org/2000/svg" xmlns:xlink="http://www.w3.org/1999/xlink"><symbol viewBox="0 0 107 24" id="bata-logo-header" xmlns="http://www.w3.org/2000/svg"><path d="M106.721 16.71l-1.188-1.268a.391.391 0 00-.564.141c-.418.561-.89 1.08-1.409 1.55a4.671 4.671 0 01-2.96 1.45.59.59 0 01-.282-.685c1.148-2.839 2.215-5.779 3.342-8.638a1.73 1.73 0 00.121-1.148.981.981 0 00-.946-.624c-1.12.215-2.26.31-3.4.282-1.007 0-1.953-.463-2.94-.282-.886.242-1.027 1.329-1.631 1.772a10.25 10.25 0 00-2.7-1.53 11.308 11.308 0 00-2.678-.383 12.178 12.178 0 00-9.363 3.945 22.91 22.91 0 00-2.738 4.49c-.886.584-1.812 1.389-2.779 1.933-.685.383-1.651.826-2.074.483a.355.355 0 01-.081-.483c.644-2.074 1.55-4.087 2.215-6.141.126-.533.374-1.03.725-1.45a22.7 22.7 0 002.577-.584c.564-.242 1.369-.322 1.409-1.087-.221-.624-.322-1.953-1.168-1.671-.342.1-.524.181-.866.282-.322.081-1.349.463-1.148-.221.664-1.872 1.148-2.919 1.752-4.47.13-.35.13-.736 0-1.087-.2-.345-.55-.576-.945-.623a1.829 1.829 0 00-1.611.644 7.16 7.16 0 01-3.1 3.081c-1.147.433-2.334.75-3.544.946-.906.4-.725 1.611-1.51 2.094-.926.1-1.51-.06-2.416.081-.6-.02-.624.564-.725.886l-.362.946c-.121.282-.181.765.443.725h1.832c.181.04.242.181.1.5-.667 1.634-1.207 3.245-1.867 4.876a24.65 24.65 0 01-4.007 2.919 4.02 4.02 0 01-2.336.785.561.561 0 01-.443-.624l3.4-8.92c.282-.725.443-1.208 0-1.671a.86.86 0 00-.846-.3 14.8 14.8 0 01-3.544.3c-1.168.06-2.7-.926-3.523.282-.342.362-.443 1.007-.886 1.228a9.166 9.166 0 00-2.715-1.489 12.255 12.255 0 00-2.577-.383 11.632 11.632 0 00-4.369.664c-3.966 1.168-6.4 4.309-7.792 7.893-.4 1.027-1.812 1.57-2.255 1.812-.33.17-.695.267-1.067.282a9.608 9.608 0 00.483-3.262 4.88 4.88 0 00-2.823-4.366c-.483-.221-.685-.282-1.087-.483 1.651-.362 3.483-1.047 4.409-2.517.856-1.309.856-3 0-4.309C30.552 1.207 27.975.361 25.358.059 17.868-.485 10.499 2.797 5.385 7.71a.681.681 0 00.282.725c.423.342.765.987 1.369.946a27.307 27.307 0 014.228-3.121c.1.02.262-.121.3.04a17.722 17.722 0 00-1.065 1.752c-1.47 3.2-2.7 6.564-4.128 9.805-.584 1.107-1.228 2.4-2.678 2.416a5.208 5.208 0 01-2.94-2.013.24.24 0 00-.282-.06c-.181.081-.181.544-.322 1.188-.081.564-.3 1.067.02 1.53a8.976 8.976 0 009.121 2.738 8.182 8.182 0 005.517-4.208c1.913-4.308 3.665-8.556 5.435-12.986.725-1.752 1.51-3.966 3.846-4.188.57-.03 1.112.257 1.409.745.7 1.168.181 2.678-.483 3.7a4.357 4.357 0 01-3.987 2.134c-.906-.121-.906 1.047-1.248 1.711-.06.262 0 .4.181.483.805.121 2.013-.04 2.678.644.946 1.027.745 2.819.362 4.067-.624 1.53-1.168 3.362-2.617 4.208-.922.6-2.11.608-3.04.02-.423-.161-.805-.805-1.107-.644a8.47 8.47 0 00-.906 1.812c-.121.362.04.4.584.826a9.847 9.847 0 006.121 2.013c4.49.04 8.3-2.134 11.819-4.309l.342-.02a5.678 5.678 0 003.2 3.624c3.342 1.55 7.007-.161 9.423-2.255a.02.02 0 01.02-.02c.3-.221.584-.624.946-.685.053.976.495 1.89 1.228 2.537 2.094 1.651 5.134.805 7.309-.141a40.365 40.365 0 005.9-3.141c.1-.081.342-.282.383-.02a4.564 4.564 0 00-.161 1.812 2.69 2.69 0 002.275 2.3c3.362.624 6.141-1.228 8.839-2.537.544-.282.745-.4 1.148-.644.745-.463 1.329-.886 2.114-1.409a.352.352 0 01.342-.04 5.3 5.3 0 003.564 4.268 8.242 8.242 0 007.128-1.128 8.608 8.608 0 001.671-1.248 8.9 8.9 0 01.946-.785l.081.081a4.1 4.1 0 00.906 2.215c1.309 1.43 3.624 1.51 5.456.946a22.495 22.495 0 009.725-6.06.674.674 0 00.082-.624zm-56.095-4.752a11.874 11.874 0 01-3.6 6.141 2.153 2.153 0 00-.221.181 3.743 3.743 0 01-2.663 1.012 1.634 1.634 0 01-1.228-1.369c-.121-2.436 1.47-4.369 2.819-5.96a6.56 6.56 0 011.067-1.007c1.067-.785 2.537-1.349 3.584-.141.256.322.346.745.242 1.143zm41.3 3.5a10.157 10.157 0 01-2.436 2.839 5.74 5.74 0 01-1.087.644c-.483.141-1.027.443-1.55.242a1.709 1.709 0 01-1.188-1.329c-.181-2.013 1.027-3.664 2.013-5.154a9.33 9.33 0 011.792-1.772.02.02 0 01.02-.02c.825-.544 1.691-1.188 2.779-.846.4.097.734.371.906.745.438 1.776-.428 3.265-1.253 4.655l.004-.004z" fill="#E60000" fill-rule="evenodd"/></symbol><symbol viewBox="0 0 107 24" id="bata-logo-red" xmlns="http://www.w3.org/2000/svg"><path d="M106.721 16.71l-1.188-1.268a.391.391 0 00-.564.141c-.418.561-.89 1.08-1.409 1.55a4.671 4.671 0 01-2.96 1.45.59.59 0 01-.282-.685c1.148-2.839 2.215-5.779 3.342-8.638a1.73 1.73 0 00.121-1.148.981.981 0 00-.946-.624c-1.12.215-2.26.31-3.4.282-1.007 0-1.953-.463-2.94-.282-.886.242-1.027 1.329-1.631 1.772a10.25 10.25 0 00-2.7-1.53 11.308 11.308 0 00-2.678-.383 12.178 12.178 0 00-9.363 3.945 22.91 22.91 0 00-2.738 4.49c-.886.584-1.812 1.389-2.779 1.933-.685.383-1.651.826-2.074.483a.355.355 0 01-.081-.483c.644-2.074 1.55-4.087 2.215-6.141.126-.533.374-1.03.725-1.45a22.7 22.7 0 002.577-.584c.564-.242 1.369-.322 1.409-1.087-.221-.624-.322-1.953-1.168-1.671-.342.1-.524.181-.866.282-.322.081-1.349.463-1.148-.221.664-1.872 1.148-2.919 1.752-4.47.13-.35.13-.736 0-1.087-.2-.345-.55-.576-.945-.623a1.829 1.829 0 00-1.611.644 7.16 7.16 0 01-3.1 3.081c-1.147.433-2.334.75-3.544.946-.906.4-.725 1.611-1.51 2.094-.926.1-1.51-.06-2.416.081-.6-.02-.624.564-.725.886l-.362.946c-.121.282-.181.765.443.725h1.832c.181.04.242.181.1.5-.667 1.634-1.207 3.245-1.867 4.876a24.65 24.65 0 01-4.007 2.919 4.02 4.02 0 01-2.336.785.561.561 0 01-.443-.624l3.4-8.92c.282-.725.443-1.208 0-1.671a.86.86 0 00-.846-.3 14.8 14.8 0 01-3.544.3c-1.168.06-2.7-.926-3.523.282-.342.362-.443 1.007-.886 1.228a9.166 9.166 0 00-2.715-1.489 12.255 12.255 0 00-2.577-.383 11.632 11.632 0 00-4.369.664c-3.966 1.168-6.4 4.309-7.792 7.893-.4 1.027-1.812 1.57-2.255 1.812-.33.17-.695.267-1.067.282a9.608 9.608 0 00.483-3.262 4.88 4.88 0 00-2.823-4.366c-.483-.221-.685-.282-1.087-.483 1.651-.362 3.483-1.047 4.409-2.517.856-1.309.856-3 0-4.309C30.552 1.207 27.975.361 25.358.059 17.868-.485 10.499 2.797 5.385 7.71a.681.681 0 00.282.725c.423.342.765.987 1.369.946a27.307 27.307 0 014.228-3.121c.1.02.262-.121.3.04a17.722 17.722 0 00-1.065 1.752c-1.47 3.2-2.7 6.564-4.128 9.805-.584 1.107-1.228 2.4-2.678 2.416a5.208 5.208 0 01-2.94-2.013.24.24 0 00-.282-.06c-.181.081-.181.544-.322 1.188-.081.564-.3 1.067.02 1.53a8.976 8.976 0 009.121 2.738 8.182 8.182 0 005.517-4.208c1.913-4.308 3.665-8.556 5.435-12.986.725-1.752 1.51-3.966 3.846-4.188.57-.03 1.112.257 1.409.745.7 1.168.181 2.678-.483 3.7a4.357 4.357 0 01-3.987 2.134c-.906-.121-.906 1.047-1.248 1.711-.06.262 0 .4.181.483.805.121 2.013-.04 2.678.644.946 1.027.745 2.819.362 4.067-.624 1.53-1.168 3.362-2.617 4.208-.922.6-2.11.608-3.04.02-.423-.161-.805-.805-1.107-.644a8.47 8.47 0 00-.906 1.812c-.121.362.04.4.584.826a9.847 9.847 0 006.121 2.013c4.49.04 8.3-2.134 11.819-4.309l.342-.02a5.678 5.678 0 003.2 3.624c3.342 1.55 7.007-.161 9.423-2.255a.02.02 0 01.02-.02c.3-.221.584-.624.946-.685.053.976.495 1.89 1.228 2.537 2.094 1.651 5.134.805 7.309-.141a40.365 40.365 0 005.9-3.141c.1-.081.342-.282.383-.02a4.564 4.564 0 00-.161 1.812 2.69 2.69 0 002.275 2.3c3.362.624 6.141-1.228 8.839-2.537.544-.282.745-.4 1.148-.644.745-.463 1.329-.886 2.114-1.409a.352.352 0 01.342-.04 5.3 5.3 0 003.564 4.268 8.242 8.242 0 007.128-1.128 8.608 8.608 0 001.671-1.248 8.9 8.9 0 01.946-.785l.081.081a4.1 4.1 0 00.906 2.215c1.309 1.43 3.624 1.51 5.456.946a22.495 22.495 0 009.725-6.06.674.674 0 00.082-.624zm-56.095-4.752a11.874 11.874 0 01-3.6 6.141 2.153 2.153 0 00-.221.181 3.743 3.743 0 01-2.663 1.012 1.634 1.634 0 01-1.228-1.369c-.121-2.436 1.47-4.369 2.819-5.96a6.56 6.56 0 011.067-1.007c1.067-.785 2.537-1.349 3.584-.141.256.322.346.745.242 1.143zm41.3 3.5a10.157 10.157 0 01-2.436 2.839 5.74 5.74 0 01-1.087.644c-.483.141-1.027.443-1.55.242a1.709 1.709 0 01-1.188-1.329c-.181-2.013 1.027-3.664 2.013-5.154a9.33 9.33 0 011.792-1.772.02.02 0 01.02-.02c.825-.544 1.691-1.188 2.779-.846.4.097.734.371.906.745.438 1.776-.428 3.265-1.253 4.655l.004-.004z" fill="#E60000" fill-rule="evenodd"/></symbol><symbol viewBox="0 0 133.5 30" id="bata-logo-white" xmlns="http://www.w3.org/2000/svg"><path fill="#fff" d="M133.385 20.922l-1.5-1.6c-.2-.1-.5-.1-.7.1-.5.7-1.1 1.4-1.8 1.9-1 1-2.3 1.7-3.7 1.8-.3-.2-.5-.5-.4-.9 1.4-3.5 2.8-7.2 4.2-10.8.2-.4.3-1 .2-1.4-.2-.5-.7-.8-1.2-.8-1.4.3-2.8.4-4.3.4-1.3 0-2.4-.6-3.7-.4-1.1.3-1.3 1.7-2 2.2-1-.8-2.2-1.5-3.4-1.9-1.1-.3-2.2-.5-3.3-.5-4.4-.1-8.7 1.7-11.7 4.9-1.4 1.7-2.5 3.6-3.4 5.6-1.1.7-2.3 1.7-3.5 2.4-.9.5-2.1 1-2.6.6-.2-.1-.2-.4-.1-.6.8-2.6 1.9-5.1 2.8-7.7.2-.7.5-1.3.9-1.8 1.1-.2 2.2-.4 3.2-.7.7-.3 1.7-.4 1.8-1.4-.3-.8-.4-2.4-1.5-2.1-.4.1-.7.2-1.1.4-.3.3-1.6.8-1.3-.1.8-2.3 1.4-3.6 2.2-5.6.2-.4.2-.9 0-1.4-.2-.4-.7-.7-1.2-.8-.8-.1-1.5.2-2 .8-.9 1.7-2.2 3-3.9 3.9-1.4.6-2.9 1-4.4 1.2-1.1.5-.9 2-1.9 2.6-1.2.1-1.9-.1-3 .1-.8 0-.8.7-.9 1.1l-.5 1.2c-.2.4-.2 1 .6.9h2.3c.2.1.3.2.1.6-.8 2-1.5 4.1-2.3 6.1-1.5 1.4-3.2 2.6-5 3.7-.8.6-1.9 1-2.9 1-.4-.1-.6-.4-.6-.8l4.3-11.1c.4-.9.6-1.5 0-2.1-.3-.3-.7-.5-1.1-.4-1.5.3-2.9.4-4.4.4-1.5.1-3.4-1.2-4.4.4-.4.5-.6 1.3-1.1 1.5-1-.8-2.2-1.4-3.4-1.9-1.1-.3-2.1-.4-3.2-.5-1.9-.1-3.7.2-5.5.8-5 1.5-8 5.4-9.7 9.9-.5 1.3-2.3 2-2.8 2.3-.4.2-.9.3-1.3.4.4-1.3.6-2.7.6-4.1 0-2.3-1.4-4.5-3.5-5.5-.6-.3-.9-.4-1.4-.6 2.1-.5 4.4-1.3 5.5-3.1 1.1-1.6 1.1-3.8 0-5.4-2.1-2.6-5.4-3.7-8.6-4-9.4-.7-18.6 3.4-25 9.6-.1.3.1.7.4.9.5.4 1 1.2 1.7 1.2 1.6-1.5 3.4-2.8 5.3-3.9.1 0 .3-.2.4.1-.5.7-.9 1.4-1.3 2.2-1.8 4-3.4 8.2-5.2 12.3-.7 1.4-1.5 3-3.3 3-1.9-.4-2.9-1.6-3.9-2.7-.1-.1-.2-.1-.4-.1-.2.1-.2.7-.4 1.5-.1.7-.4 1.3 0 1.9 2.8 3.2 7.3 4.6 11.4 3.4 3-.6 5.5-2.6 6.9-5.3 2.4-5.4 4.6-10.7 6.8-16.2.9-2.2 1.9-5 4.8-5.2.7 0 1.4.3 1.8.9.9 1.5.2 3.3-.6 4.6-1 1.8-3 2.8-5 2.7-1.1-.2-1.1 1.3-1.6 2.1-.1.3 0 .5.2.6 1 .2 2.5-.1 3.3.8 1.2 1.3.9 3.5.5 5.1-.7 2-1.4 4.3-3.2 5.3-1.2.8-2.6.8-3.8 0-.5-.2-1-1-1.4-.8-.5.7-.8 1.5-1.1 2.3-.2.5 0 .5.7 1 2.2 1.7 4.9 2.6 7.7 2.5 5.6 0 10.4-2.7 14.8-5.4h.4c.7 1.9 1.9 3.8 4 4.5 4.2 1.9 8.8-.2 11.8-2.8.4-.3.7-.8 1.2-.9.1 1.2.6 2.4 1.5 3.2 2.6 2.1 6.4 1 9.1-.2 2.6-1.1 5-2.4 7.4-3.9.1-.1.4-.4.5 0-.2.7-.3 1.5-.2 2.3.2 1.5 1.4 2.7 2.8 2.9 4.2.8 7.7-1.5 11-3.2.7-.4.9-.5 1.4-.8.9-.6 1.7-1.1 2.6-1.8.1-.1.3-.1.4 0 .4 2.5 2.1 4.5 4.5 5.3 3 .9 6.3.4 8.9-1.4.8-.4 1.5-1 2.1-1.6.4-.4.8-.7 1.2-1l.1.1c.1 1 .5 2 1.1 2.8 1.6 1.8 4.5 1.9 6.8 1.2 4.6-1.4 8.8-4 12.2-7.6.3-.2.3-.5.2-.7zm-70.1-6c-.7 3-2.3 5.6-4.5 7.7-.1.1-.2.1-.3.2-.9.8-2.1 1.3-3.3 1.3-.8-.2-1.4-.9-1.5-1.7-.2-3 1.8-5.5 3.5-7.4.4-.5.8-.9 1.3-1.3 1.3-1 3.2-1.7 4.5-.2.3.4.4.9.3 1.4zm51.6 4.4c-.8 1.4-1.8 2.6-3 3.5-.4.3-.9.6-1.4.8-.6.2-1.3.6-1.9.3-.8-.2-1.3-.9-1.5-1.7-.2-2.5 1.3-4.6 2.5-6.4.6-.8 1.4-1.6 2.2-2.2 1-.7 2.1-1.5 3.5-1.1.5.1.9.5 1.1.9.6 2.3-.5 4.2-1.5 5.9z"/></symbol><symbol viewBox="0 0 26 26" id="icon-caret-down" xmlns="http://www.w3.org/2000/svg"><defs><clipPath id="dc"><use xlink:href="#da" clip-rule="evenodd"/></clipPath><clipPath id="dd"><use xlink:href="#db"/></clipPath><path d="M0 0h12.618v22.845H0V0z" id="db"/><path id="da" d="M0 0h26v26H0z"/></defs><g clip-path="url(#dc)" transform="matrix(0 -1 -1 0 26 26)"><path d="M7 2h12.618v22.845H7V2z" fill="none"/><g clip-path="url(#dd)" transform="translate(7 2)"><path d="M12.191.44L1 11.5l11.191 10.924" fill="none" stroke="#000" stroke-width="1.2"/></g></g></symbol><symbol viewBox="0 0 26 26" id="icon-caret-left" xmlns="http://www.w3.org/2000/svg"><defs><clipPath id="ec"><use xlink:href="#ea" clip-rule="evenodd"/></clipPath><clipPath id="ed"><use xlink:href="#eb"/></clipPath><path d="M0 0h12.618v22.845H0V0z" id="eb"/><path id="ea" d="M0 0h26v26H0z"/></defs><g clip-path="url(#ec)"><path d="M7 2h12.618v22.845H7V2z" fill="none"/><g clip-path="url(#ed)" transform="translate(7 2)"><path d="M12.191.44L.861 10.955l11.33 11.469" fill="none" stroke="currentColor" stroke-width="1.2"/></g></g></symbol><symbol viewBox="0 0 13 23" id="icon-caret-right" xmlns="http://www.w3.org/2000/svg"><path d="M.426.44l11.33 10.515L.426 22.424" fill="none" stroke="currentColor" stroke-width="1.2"/></symbol><symbol viewBox="0 0 22 22" id="icon-check" xmlns="http://www.w3.org/2000/svg"><defs><clipPath id="gb"><use xlink:href="#ga" clip-rule="evenodd"/></clipPath><path id="ga" d="M0 0h22v22H0z"/></defs><g clip-path="url(#gb)"><path d="M8.377 15.182l-3.47-3.47a.996.996 0 10-1.41 1.41l4.18 4.18c.39.39 1.02.39 1.41 0l10.58-10.58a.996.996 0 10-1.41-1.41l-9.88 9.87z"/></g></symbol><symbol viewBox="0 0 21 21" id="icon-close" xmlns="http://www.w3.org/2000/svg"><g fill-rule="evenodd"><path d="M1.615 2.408l.794-.793 16.973 16.973-.793.794L1.615 2.408z"/><path d="M18.589 1.617l.793.793L2.409 19.384l-.794-.794L18.59 1.617z"/></g></symbol><symbol viewBox="0 0 26 26" id="icon-lock" xmlns="http://www.w3.org/2000/svg"><defs><clipPath id="ib"><use xlink:href="#ia" clip-rule="evenodd"/></clipPath><path id="ia" d="M0 0h26v26H0z"/></defs><g clip-path="url(#ib)"><path d="M13 3c-2.942.01-5.325 2.46-5.333 5.486v2.743H5V22.2h16V11.228h-2.667V8.486C18.325 5.46 15.942 3.01 13 3zm0 2.743a2.608 2.608 0 011.893.795c.502.516.78 1.218.773 1.948v2.743h-5.332V8.486a2.756 2.756 0 01.773-1.947 2.603 2.603 0 011.892-.796z"/></g></symbol><symbol viewBox="0 0 26 26" id="icon-menu" xmlns="http://www.w3.org/2000/svg"><path d="M0 3h26v1.5H0V3zm0 19h26v1.5H0V22zm0-10h21v1.5H0V12z" fill-rule="evenodd"/></symbol><symbol viewBox="0 0 26 26" id="icon-quantity-minus" xmlns="http://www.w3.org/2000/svg"><defs><clipPath id="kb"><use xlink:href="#ka" clip-rule="evenodd"/></clipPath><path id="ka" d="M0 0h26v26H0z"/></defs><g clip-path="url(#kb)"><path d="M1.5 13h22" fill="none" stroke="currentColor" stroke-width="1.2"/></g></symbol><symbol viewBox="0 0 26 26" id="icon-quantity-plus" xmlns="http://www.w3.org/2000/svg"><defs><clipPath id="lb"><use xlink:href="#la" clip-rule="evenodd"/></clipPath><path id="la" d="M0 0h26v26H0z"/></defs><g clip-path="url(#lb)" fill="none" stroke="currentColor" stroke-width="1.2"><path d="M1.5 13h22M13 2.5v22"/></g></symbol><symbol viewBox="0 0 24 24" id="icon-search" xmlns="http://www.w3.org/2000/svg"><g fill="none"><path d="M9.7 18.7a9 9 0 100-18 9 9 0 000 18z"/><path d="M9.7 18a8.3 8.3 0 100-16.6 8.3 8.3 0 000 16.6zm5.5-2.8l7 7" stroke="#000" stroke-width="1.4"/></g></symbol><symbol viewBox="0 0 26 26" id="icon-shield" xmlns="http://www.w3.org/2000/svg"><defs><clipPath id="nb"><use xlink:href="#na" clip-rule="evenodd"/></clipPath><path id="na" d="M0 0h26v26H0z"/></defs><g clip-path="url(#nb)"><path d="M13 4L5 7.454v5.183C4.984 17.44 8.25 21.67 13 23c4.75-1.33 8.016-5.56 8-10.364V7.454L13 4zm0 9.44h6c-.37 3.446-2.699 6.381-6 7.56v-7.552H7V8.63L13 6v7.44z"/></g></symbol><symbol viewBox="0 0 26 26" id="icon-shoppingcart" xmlns="http://www.w3.org/2000/svg"><path d="M24.733 9.699v15.117H1.185V9.699h23.548m.132-1.185H1.054C.472 8.514 0 8.986 0 9.568v15.38c0 .582.472 1.054 1.054 1.054h23.811c.582 0 1.054-.472 1.054-1.054V9.568c0-.582-.472-1.054-1.054-1.054z"/><path d="M12.959 0C8.692 0 5.247 5.126 5.247 11.45c0 .388.013.772.04 1.151h1.188a16.834 16.834 0 01-.042-1.151A13.407 13.407 0 018.49 4.017a5.572 5.572 0 014.47-2.832 5.6 5.6 0 014.477 2.832 13.5 13.5 0 012.057 7.433c0 .387-.016.772-.042 1.151h1.188c.027-.38.04-.763.04-1.151C20.672 5.126 17.218 0 12.959 0z"/></symbol><symbol viewBox="0 0 20 26" id="icon-store" xmlns="http://www.w3.org/2000/svg"><path d="M9.202 1.31a7.896 7.896 0 017.896 7.897c0 1.882-1.31 5.382-3.429 9.14a25.891 25.891 0 01-4.456 6.221 26.33 26.33 0 01-4.457-6.23c-2.129-3.755-3.44-7.256-3.44-9.131A7.896 7.896 0 019.213 1.31M9.203 0A9.202 9.202 0 000 9.202C0 14.284 7.365 26 9.202 26c1.837 0 9.202-11.716 9.202-16.798A9.202 9.202 0 009.202 0z"/><path d="M9.228 12.097a3.491 3.491 0 11.002-6.983 3.491 3.491 0 01-.002 6.983zm0-5.671a2.181 2.181 0 100 4.362 2.181 2.181 0 000-4.362z"/></symbol><symbol viewBox="0 0 27.738 22.895" id="icon-track" xmlns="http://www.w3.org/2000/svg"><path d="M.551.551h18.161v15.74H.551zm18.161 6.054h4.843l3.632 3.632v6.054h-8.475zM9.027 19.318A3.027 3.027 0 116 16.291a3.027 3.027 0 013.027 3.027zm15.739 0a3.027 3.027 0 11-3.027-3.027 3.027 3.027 0 013.027 3.027z" fill="none" stroke="#000" stroke-linecap="round" stroke-linejoin="round" stroke-width="1.1"/></symbol><symbol viewBox="0 0 26 26" id="icon-user" xmlns="http://www.w3.org/2000/svg"><defs><clipPath id="rb"><use xlink:href="#ra" clip-rule="evenodd"/></clipPath><path id="ra" d="M0 0h26v26H0z"/></defs><g clip-path="url(#rb)"><path d="M13.046 1.47a6.67 6.67 0 110 13.339 6.67 6.67 0 010-13.34m0-1.469a8.14 8.14 0 100 16.278 8.14 8.14 0 000-16.278zM1.539 25.989a10.72 10.72 0 011.296-2.063c2.269-2.892 5.698-4.34 10.211-4.34 7.21 0 10.261 3.937 11.495 6.39h1.541c-1.243-2.868-4.592-7.742-13.035-7.742-8.442 0-11.804 4.874-13.047 7.755h1.539z"/></g></symbol><symbol viewBox="0 0 26 26" id="icon-wishlist" xmlns="http://www.w3.org/2000/svg"><path d="M18.588 1.317a5.982 5.982 0 015.958 5.991c0 6.948-8.88 14.757-11.616 16.997a53.195 53.195 0 01-5.492-5.192C3.433 14.71 1.316 10.626 1.316 7.308a5.982 5.982 0 015.953-5.991 5.905 5.905 0 014.634 2.269l1.03 1.293 1.03-1.293a5.905 5.905 0 014.628-2.27m0-1.317a7.217 7.217 0 00-5.658 2.767A7.217 7.217 0 007.27 0 7.29 7.29 0 000 7.308c0 8.93 12.93 18.68 12.93 18.68s12.93-9.741 12.93-18.68A7.29 7.29 0 0018.588 0l.003-.001z"/></symbol><symbol viewBox="0 0 18 18" id="plp-filter" xmlns="http://www.w3.org/2000/svg"><path d="M.429 2.99h3.038A2.573 2.573 0 006 5.12a2.573 2.573 0 002.533-2.13h9.038a.429.429 0 000-.859H8.533A2.573 2.573 0 006 0a2.573 2.573 0 00-2.533 2.131H.43a.429.429 0 000 .859zM6 .843c.947 0 1.714.77 1.714 1.718S6.947 4.278 6 4.278A1.716 1.716 0 014.286 2.56c0-.949.767-1.718 1.714-1.718zm11.571 7.728h-3.038A2.573 2.573 0 0012 6.439a2.573 2.573 0 00-2.533 2.132H.43a.429.429 0 000 .858h9.038A2.573 2.573 0 0012 11.561a2.573 2.573 0 002.533-2.132h3.038a.429.429 0 000-.858zM12 10.717A1.716 1.716 0 0110.286 9c0-.948.767-1.717 1.714-1.717s1.714.769 1.714 1.717c0 .948-.767 1.717-1.714 1.717zm5.571 4.293H8.533A2.573 2.573 0 006 12.88a2.573 2.573 0 00-2.533 2.131H.43a.429.429 0 000 .859h3.038A2.573 2.573 0 006 18a2.573 2.573 0 002.533-2.131h9.038a.429.429 0 000-.859zM6 17.157a1.716 1.716 0 01-1.714-1.718c0-.948.767-1.717 1.714-1.717s1.714.769 1.714 1.717c0 .949-.767 1.718-1.714 1.718z"/></symbol><symbol viewBox="0 0 24 24" id="socialIcon-line" xmlns="http://www.w3.org/2000/svg"><path d="M19.365 9.863a.631.631 0 010 1.261H17.61v1.125h1.755a.63.63 0 110 1.259h-2.386a.631.631 0 01-.627-.629V8.108c0-.345.282-.63.63-.63h2.386a.63.63 0 01-.003 1.26H17.61v1.125h1.755zm-3.855 3.016a.63.63 0 01-.631.627.618.618 0 01-.51-.25l-2.443-3.317v2.94a.63.63 0 01-1.257 0V8.108a.627.627 0 01.624-.628c.195 0 .375.104.495.254l2.462 3.33V8.108c0-.345.282-.63.63-.63.345 0 .63.285.63.63v4.771zm-5.741 0a.632.632 0 01-.631.629.631.631 0 01-.627-.629V8.108c0-.345.282-.63.63-.63.346 0 .628.285.628.63v4.771zm-2.466.629H4.917a.634.634 0 01-.63-.629V8.108c0-.345.285-.63.63-.63.348 0 .63.285.63.63v4.141h1.756a.63.63 0 010 1.259M24 10.314C24 4.943 18.615.572 12 .572S0 4.943 0 10.314c0 4.811 4.27 8.842 10.035 9.608.391.082.923.258 1.058.59.12.301.079.766.038 1.08l-.164 1.02c-.045.301-.24 1.186 1.049.645 1.291-.539 6.916-4.078 9.436-6.975C23.176 14.393 24 12.458 24 10.314"/></symbol><symbol viewBox="0 0 512 512" id="socialIcon-tiktok" xmlns="http://www.w3.org/2000/svg"><path d="M256 0C114.615 0 0 114.615 0 256s114.615 256 256 256 256-114.615 256-256S397.385 0 256 0zm129.62 232.382c-27.184 0-53.634-8.822-74-23.75l-.162 101.5a92.457 92.457 0 11-80.178-91.721v49.845a43.657 43.657 0 1031.288 41.876V109.333h51.275a71.773 71.773 0 0071.774 71.773z"/></symbol></svg>